<mxfile host="Electron" agent="Mozilla/5.0 (Windows NT 10.0; Win64; x64) AppleWebKit/537.36 (KHTML, like Gecko) draw.io/24.7.17 Chrome/128.0.6613.36 Electron/32.0.1 Safari/537.36" version="24.7.17">
  <diagram name="Page-1" id="VNDMJSj4xkSlWtdDEDiy">
    <mxGraphModel dx="1902" dy="529" grid="1" gridSize="10" guides="1" tooltips="1" connect="1" arrows="1" fold="1" page="1" pageScale="1" pageWidth="827" pageHeight="1169" math="0" shadow="0">
      <root>
        <mxCell id="0" />
        <mxCell id="1" parent="0" />
        <mxCell id="3z3Z6BW9-4oCtYpKIzC--1" value="Enter master password" style="rounded=0;whiteSpace=wrap;html=1;" vertex="1" parent="1">
          <mxGeometry x="354" y="20" width="120" height="60" as="geometry" />
        </mxCell>
        <mxCell id="3z3Z6BW9-4oCtYpKIzC--2" value="Navigation menu" style="rounded=0;whiteSpace=wrap;html=1;" vertex="1" parent="1">
          <mxGeometry x="16" y="70" width="120" height="30" as="geometry" />
        </mxCell>
        <mxCell id="3z3Z6BW9-4oCtYpKIzC--3" value="Correct" style="text;html=1;align=center;verticalAlign=middle;resizable=0;points=[];autosize=1;strokeColor=none;fillColor=none;" vertex="1" parent="1">
          <mxGeometry x="50" y="35" width="60" height="30" as="geometry" />
        </mxCell>
        <mxCell id="3z3Z6BW9-4oCtYpKIzC--4" value="Incorrect" style="text;html=1;align=center;verticalAlign=middle;resizable=0;points=[];autosize=1;strokeColor=none;fillColor=none;" vertex="1" parent="1">
          <mxGeometry x="500" y="58" width="70" height="30" as="geometry" />
        </mxCell>
        <mxCell id="3z3Z6BW9-4oCtYpKIzC--6" value="Set password enter limit&amp;nbsp;" style="ellipse;whiteSpace=wrap;html=1;" vertex="1" parent="1">
          <mxGeometry x="500" y="100" width="90" height="60" as="geometry" />
        </mxCell>
        <mxCell id="3z3Z6BW9-4oCtYpKIzC--9" value="User can either add new passsword." style="rounded=0;whiteSpace=wrap;html=1;" vertex="1" parent="1">
          <mxGeometry x="-240" y="130" width="120" height="60" as="geometry" />
        </mxCell>
        <mxCell id="3z3Z6BW9-4oCtYpKIzC--10" value="Delete saved data" style="rounded=0;whiteSpace=wrap;html=1;" vertex="1" parent="1">
          <mxGeometry x="30" y="130" width="120" height="60" as="geometry" />
        </mxCell>
        <mxCell id="3z3Z6BW9-4oCtYpKIzC--11" value="&lt;div&gt;Edit saved data&lt;/div&gt;&lt;div&gt;&lt;br&gt;&lt;/div&gt;" style="rounded=0;whiteSpace=wrap;html=1;" vertex="1" parent="1">
          <mxGeometry x="-100" y="130" width="120" height="60" as="geometry" />
        </mxCell>
        <mxCell id="3z3Z6BW9-4oCtYpKIzC--12" value="&lt;div&gt;&lt;br&gt;&lt;/div&gt;&lt;div&gt;Retrive saved data&lt;br&gt;&lt;/div&gt;" style="rounded=0;whiteSpace=wrap;html=1;" vertex="1" parent="1">
          <mxGeometry x="160" y="130" width="120" height="60" as="geometry" />
        </mxCell>
        <mxCell id="3z3Z6BW9-4oCtYpKIzC--14" value="User enters details" style="text;html=1;align=center;verticalAlign=middle;whiteSpace=wrap;rounded=0;" vertex="1" parent="1">
          <mxGeometry x="-232" y="210" width="104" height="50" as="geometry" />
        </mxCell>
        <mxCell id="3z3Z6BW9-4oCtYpKIzC--15" value="Encrypt data" style="ellipse;whiteSpace=wrap;html=1;" vertex="1" parent="1">
          <mxGeometry x="-230" y="260" width="100" height="50" as="geometry" />
        </mxCell>
        <mxCell id="3z3Z6BW9-4oCtYpKIzC--16" value="Data is stored in database" style="text;html=1;align=center;verticalAlign=middle;whiteSpace=wrap;rounded=0;" vertex="1" parent="1">
          <mxGeometry x="-230" y="350" width="100" height="30" as="geometry" />
        </mxCell>
        <mxCell id="3z3Z6BW9-4oCtYpKIzC--18" value="Show websites, app name" style="ellipse;whiteSpace=wrap;html=1;" vertex="1" parent="1">
          <mxGeometry x="150" y="210" width="130" height="50" as="geometry" />
        </mxCell>
        <mxCell id="3z3Z6BW9-4oCtYpKIzC--19" value="1 instance" style="text;html=1;align=center;verticalAlign=middle;whiteSpace=wrap;rounded=0;" vertex="1" parent="1">
          <mxGeometry x="110" y="270" width="60" height="30" as="geometry" />
        </mxCell>
        <mxCell id="3z3Z6BW9-4oCtYpKIzC--20" value="Display only 1 details" style="ellipse;whiteSpace=wrap;html=1;" vertex="1" parent="1">
          <mxGeometry x="90" y="300" width="110" height="40" as="geometry" />
        </mxCell>
        <mxCell id="3z3Z6BW9-4oCtYpKIzC--21" value="Multiple instances" style="text;html=1;align=center;verticalAlign=middle;whiteSpace=wrap;rounded=0;" vertex="1" parent="1">
          <mxGeometry x="240" y="270" width="100" height="30" as="geometry" />
        </mxCell>
        <mxCell id="3z3Z6BW9-4oCtYpKIzC--22" value="Show different accounts" style="ellipse;whiteSpace=wrap;html=1;" vertex="1" parent="1">
          <mxGeometry x="220" y="300" width="140" height="40" as="geometry" />
        </mxCell>
        <mxCell id="3z3Z6BW9-4oCtYpKIzC--24" value="User picks account" style="rounded=0;whiteSpace=wrap;html=1;" vertex="1" parent="1">
          <mxGeometry x="230" y="360" width="124" height="30" as="geometry" />
        </mxCell>
        <mxCell id="3z3Z6BW9-4oCtYpKIzC--26" value="Display that account details" style="ellipse;whiteSpace=wrap;html=1;" vertex="1" parent="1">
          <mxGeometry x="230" y="410" width="122" height="60" as="geometry" />
        </mxCell>
      </root>
    </mxGraphModel>
  </diagram>
</mxfile>
